<?xml version="1.0" encoding="UTF-8" standalone="no"?>
<!DOCTYPE svg PUBLIC "-//W3C//DTD SVG 20010904//EN"
              "http://www.w3.org/TR/2001/REC-SVG-20010904/DTD/svg10.dtd">

<svg xmlns="http://www.w3.org/2000/svg"
     width="6.8in" height="6.8in"
     viewBox="0 0 612 612">
  <path id="chat-red"
        fill="#38170e" stroke="#38170e" stroke-width="1"
        d="M 91.00,0.09
           C 91.00,0.09 173.00,0.09 173.00,0.09
             173.00,0.09 330.00,0.09 330.00,0.09
             330.00,0.09 409.00,0.09 409.00,0.09
             439.07,0.36 463.95,27.37 464.00,57.00
             464.00,57.00 464.00,270.00 464.00,270.00
             463.95,301.66 438.95,327.95 407.00,328.00
             407.00,328.00 133.00,328.00 133.00,328.00
             130.84,328.00 128.03,327.89 126.00,328.58
             122.56,329.77 112.46,338.44 109.00,341.20
             109.00,341.20 82.00,362.80 82.00,362.80
             82.00,362.80 67.00,374.70 67.00,374.70
             60.82,379.02 52.36,379.39 49.65,370.98
             48.90,368.65 49.00,365.47 49.00,363.00
             49.00,363.00 49.00,335.00 49.00,335.00
             48.83,325.92 45.47,327.70 37.00,324.39
             31.87,322.38 28.47,320.61 24.00,317.36
             9.40,306.74 0.03,290.21 0.00,272.00
             0.00,272.00 0.00,56.00 0.00,56.00
             0.04,27.53 21.02,6.29 48.00,0.09
             48.00,0.09 91.00,0.09 91.00,0.09 Z
           M 22.00,16.00
           C 22.00,16.00 29.00,16.00 29.00,16.00
             29.00,16.00 22.00,16.00 22.00,16.00 Z
           M 104.00,319.20
           C 113.73,311.41 115.18,308.02 128.00,307.88
             128.00,307.88 364.00,307.88 364.00,307.88
             364.00,307.88 391.00,307.88 391.00,307.88
             391.00,307.88 412.00,307.88 412.00,307.88
             425.56,305.09 437.37,295.04 441.90,282.00
             443.68,276.88 443.99,272.34 444.00,267.00
             444.00,267.00 444.00,61.00 444.00,61.00
             443.96,37.29 428.06,20.04 404.00,20.00
             404.00,20.00 108.00,20.00 108.00,20.00
             108.00,20.00 74.00,20.00 74.00,20.00
             74.00,20.00 57.00,20.00 57.00,20.00
             41.26,20.19 28.12,30.75 22.31,45.00
             20.06,50.52 20.01,53.20 20.00,59.00
             20.00,59.00 20.00,269.00 20.00,269.00
             20.03,286.25 29.61,300.03 46.00,305.91
             55.15,309.19 61.49,306.62 66.35,312.34
             69.26,315.75 68.99,319.82 69.00,324.00
             69.00,324.00 69.00,346.00 69.00,346.00
             75.56,343.04 96.90,324.88 104.00,319.20 Z
           M 518.00,308.00
           C 522.50,308.00 528.94,307.53 532.96,309.57
             539.45,312.87 539.40,322.43 534.66,326.11
             531.88,328.27 528.31,327.99 525.00,328.00
             525.00,328.00 493.00,328.00 493.00,328.00
             490.19,327.96 487.54,327.97 485.13,326.26
             478.80,321.76 480.04,312.12 489.00,308.57
             489.00,308.57 518.00,308.00 518.00,308.00 Z
           M 435.00,312.00
           C 435.00,312.00 442.00,312.00 442.00,312.00
             442.00,312.00 435.00,312.00 435.00,312.00 Z
           M 264.00,367.00
           C 264.00,367.00 327.00,367.00 327.00,367.00
             327.00,367.00 522.00,367.00 522.00,367.00
             526.55,367.01 532.13,366.87 535.57,370.42
             539.42,374.39 538.68,382.79 533.81,385.69
             531.24,387.22 527.89,386.99 525.00,387.00
             525.00,387.00 235.00,387.00 235.00,387.00
             231.38,386.99 228.11,387.33 225.23,384.69
             219.47,379.41 221.49,370.33 230.00,367.53
             230.00,367.53 264.00,367.00 264.00,367.00 Z
           M 264.00,426.00
           C 264.00,426.00 327.00,426.00 327.00,426.00
             327.00,426.00 523.00,426.00 523.00,426.00
             527.16,426.01 531.36,425.79 534.77,428.65
             539.36,432.50 539.12,441.53 533.81,444.69
             531.24,446.22 527.89,445.99 525.00,446.00
             525.00,446.00 235.00,446.00 235.00,446.00
             231.38,445.99 228.11,446.33 225.23,443.69
             219.47,438.41 221.49,429.33 230.00,426.53
             230.00,426.53 264.00,426.00 264.00,426.00 Z
           M 253.00,485.00
           C 253.00,485.00 297.00,485.00 297.00,485.00
             297.00,485.00 436.00,485.00 436.00,485.00
             440.21,485.01 444.38,484.74 447.88,487.51
             452.99,491.52 453.24,499.44 447.88,503.26
             445.03,505.28 441.31,504.99 438.00,505.00
             438.00,505.00 266.00,505.00 266.00,505.00
             266.00,505.00 234.00,505.00 234.00,505.00
             219.51,504.80 218.14,490.33 229.00,485.65
             234.66,484.48 246.66,485.00 253.00,485.00 Z" />
  <path id="chat-blue"
        fill="#395352" stroke="#395352" stroke-width="1"
        d="M 110.00,74.00
           C 110.00,74.00 173.00,74.00 173.00,74.00
             173.00,74.00 376.00,74.00 376.00,74.00
             379.34,74.01 383.00,73.73 385.89,75.74
             390.85,79.19 391.45,87.43 386.77,91.35
             383.36,94.21 379.16,93.99 375.00,94.00
             375.00,94.00 142.00,94.00 142.00,94.00
             142.00,94.00 89.00,94.00 89.00,94.00
             84.84,93.99 80.64,94.21 77.23,91.35
             71.80,86.80 73.35,78.41 79.09,74.85
             84.89,73.20 102.90,74.00 110.00,74.00 Z
           M 110.00,133.00
           C 110.00,133.00 173.00,133.00 173.00,133.00
             173.00,133.00 376.00,133.00 376.00,133.00
             379.34,133.01 383.00,132.73 385.89,134.74
             390.85,138.19 391.45,146.43 386.77,150.35
             383.36,153.21 379.16,152.99 375.00,153.00
             375.00,153.00 142.00,153.00 142.00,153.00
             142.00,153.00 89.00,153.00 89.00,153.00
             84.84,152.99 80.64,153.21 77.23,150.35
             71.80,145.80 73.35,137.41 79.09,133.85
             84.89,132.20 102.90,133.00 110.00,133.00 Z
           M 102.00,192.00
           C 102.00,192.00 146.00,192.00 146.00,192.00
             146.00,192.00 290.00,192.00 290.00,192.00
             293.26,192.01 297.02,191.71 299.83,193.74
             305.08,197.62 304.84,205.49 299.83,209.49
             296.43,212.26 292.14,211.99 288.00,212.00
             288.00,212.00 118.00,212.00 118.00,212.00
             118.00,212.00 93.00,212.00 93.00,212.00
             89.30,212.00 83.31,212.37 80.02,210.99
             72.07,207.68 71.99,197.26 79.09,192.85
             84.48,191.32 95.90,192.00 102.00,192.00 Z
           M 543.00,556.00
           C 543.16,544.38 547.30,544.14 557.00,542.56
             561.26,541.87 566.14,540.57 570.00,538.62
             583.59,531.77 591.98,518.06 592.00,503.00
             592.00,503.00 592.00,307.00 592.00,307.00
             591.96,284.37 574.64,267.04 552.00,267.00
             552.00,267.00 509.00,267.00 509.00,267.00
             504.84,266.99 500.64,267.21 497.23,264.35
             492.64,260.50 492.88,251.47 498.19,248.31
             500.76,246.78 504.11,247.01 507.00,247.00
             507.00,247.00 539.00,247.00 539.00,247.00
             539.00,247.00 555.00,247.00 555.00,247.00
             571.91,247.03 588.49,254.78 599.19,268.00
             602.99,272.70 605.78,277.44 608.13,283.00
             610.86,289.49 611.99,296.01 612.00,303.00
             612.00,303.00 612.00,507.00 612.00,507.00
             611.96,533.31 589.64,559.76 562.86,562.00
             562.86,562.00 562.86,598.00 562.86,598.00
             563.00,599.98 563.08,603.15 562.86,605.00
             560.88,611.14 554.73,613.20 549.00,611.49
             544.75,610.23 530.47,597.77 526.00,594.20
             526.00,594.20 500.00,573.40 500.00,573.40
             491.69,566.75 489.90,563.02 479.00,563.00
             479.00,563.00 289.00,563.00 289.00,563.00
             289.00,563.00 205.00,563.00 205.00,563.00
             173.50,562.63 148.05,536.28 148.00,505.00
             148.00,505.00 148.00,372.00 148.00,372.00
             148.01,368.66 147.73,365.00 149.74,362.11
             153.19,357.15 161.43,356.55 165.35,361.23
             168.21,364.64 167.99,368.84 168.00,373.00
             168.00,373.00 168.00,501.00 168.00,501.00
             168.01,507.01 168.15,509.17 170.03,515.00
             171.44,519.40 173.00,522.28 175.76,526.00
             190.31,545.60 207.65,543.00 229.00,543.00
             229.00,543.00 260.00,543.00 260.00,543.00
             260.00,543.00 487.00,543.00 487.00,543.00
             498.68,543.02 501.13,547.50 510.00,554.60
             510.00,554.60 543.00,581.00 543.00,581.00
             543.00,581.00 543.00,556.00 543.00,556.00 Z" />
</svg>
